<?xml version="1.0" standalone="no"?>
<!DOCTYPE svg PUBLIC "-//W3C//DTD SVG 20010904//EN"
 "http://www.w3.org/TR/2001/REC-SVG-20010904/DTD/svg10.dtd">
<svg version="1.0" xmlns="http://www.w3.org/2000/svg"
 width="64.000000pt" height="64.000000pt" viewBox="0 0 64.000000 64.000000"
 preserveAspectRatio="xMidYMid meet">
<metadata>
Created by potrace 1.16, written by Peter Selinger 2001-2019
</metadata>
<g transform="translate(0.000000,64.000000) scale(0.100000,-0.100000)"
fill="#ff9f43" stroke="none">
<path d="M206 604 c-118 -43 -206 -165 -206 -285 0 -42 3 -49 20 -49 18 0 20
-7 20 -86 0 -76 2 -85 18 -80 9 2 88 17 175 31 l158 27 22 -20 c12 -11 34 -25
50 -31 23 -9 27 -16 27 -51 0 -36 2 -40 25 -40 23 0 25 4 25 45 0 35 4 45 16
45 9 0 31 15 50 34 34 34 34 34 34 128 0 130 -17 177 -94 254 -43 42 -76 66
-110 77 -60 21 -176 21 -230 1z m231 -62 c56 -29 102 -77 129 -137 19 -40 24
-65 22 -125 0 -41 -3 -61 -5 -45 -6 42 -30 65 -68 65 -46 0 -69 -21 -69 -65 0
-27 6 -42 25 -57 23 -19 23 -19 1 -8 -28 14 -42 48 -42 106 l0 44 -190 0
c-220 0 -212 -5 -158 101 35 65 96 119 162 139 48 15 146 5 193 -18z m-57
-300 l0 -27 -145 -25 -145 -26 0 53 0 53 145 0 145 0 0 -28z"/>
</g>
</svg>
